<mxfile host="app.diagrams.net" modified="2024-01-28T07:36:08.423Z" agent="Mozilla/5.0 (Windows NT 10.0; Win64; x64) AppleWebKit/537.36 (KHTML, like Gecko) Chrome/121.0.0.0 Safari/537.36 Edg/121.0.0.0" etag="xKKnk40wsl7v4LNRTpJa" version="23.0.2" type="github">
  <diagram id="C5RBs43oDa-KdzZeNtuy" name="Page-1">
    <mxGraphModel dx="2493" dy="1978" grid="1" gridSize="10" guides="1" tooltips="1" connect="1" arrows="1" fold="1" page="1" pageScale="1" pageWidth="827" pageHeight="1169" math="0" shadow="0">
      <root>
        <mxCell id="WIyWlLk6GJQsqaUBKTNV-0" />
        <mxCell id="WIyWlLk6GJQsqaUBKTNV-1" parent="WIyWlLk6GJQsqaUBKTNV-0" />
        <mxCell id="oxO11MjppQJNmG1KDSJN-7" value="" style="edgeStyle=none;curved=1;rounded=0;orthogonalLoop=1;jettySize=auto;html=1;fontSize=12;startSize=8;endSize=8;" edge="1" parent="WIyWlLk6GJQsqaUBKTNV-1" source="WIyWlLk6GJQsqaUBKTNV-6" target="oxO11MjppQJNmG1KDSJN-6">
          <mxGeometry relative="1" as="geometry" />
        </mxCell>
        <mxCell id="oxO11MjppQJNmG1KDSJN-27" value="" style="edgeStyle=none;curved=1;rounded=0;orthogonalLoop=1;jettySize=auto;html=1;fontSize=12;startSize=8;endSize=8;exitX=1;exitY=0.5;exitDx=0;exitDy=0;" edge="1" parent="WIyWlLk6GJQsqaUBKTNV-1" source="WIyWlLk6GJQsqaUBKTNV-6" target="oxO11MjppQJNmG1KDSJN-26">
          <mxGeometry relative="1" as="geometry" />
        </mxCell>
        <mxCell id="WIyWlLk6GJQsqaUBKTNV-6" value="needRollback === 1" style="rhombus;whiteSpace=wrap;html=1;shadow=0;fontFamily=Helvetica;fontSize=12;align=center;strokeWidth=1;spacing=6;spacingTop=-4;" parent="WIyWlLk6GJQsqaUBKTNV-1" vertex="1">
          <mxGeometry x="120" y="170" width="200" height="80" as="geometry" />
        </mxCell>
        <mxCell id="oxO11MjppQJNmG1KDSJN-9" value="" style="edgeStyle=none;curved=1;rounded=0;orthogonalLoop=1;jettySize=auto;html=1;fontSize=12;startSize=8;endSize=8;" edge="1" parent="WIyWlLk6GJQsqaUBKTNV-1" source="oxO11MjppQJNmG1KDSJN-6" target="oxO11MjppQJNmG1KDSJN-8">
          <mxGeometry relative="1" as="geometry" />
        </mxCell>
        <mxCell id="oxO11MjppQJNmG1KDSJN-6" value="获取 H5 版本号 H5_VERSION" style="whiteSpace=wrap;html=1;shadow=0;strokeWidth=1;spacing=6;spacingTop=-4;" vertex="1" parent="WIyWlLk6GJQsqaUBKTNV-1">
          <mxGeometry x="120" y="300" width="200" height="60" as="geometry" />
        </mxCell>
        <mxCell id="oxO11MjppQJNmG1KDSJN-11" value="" style="edgeStyle=none;curved=1;rounded=0;orthogonalLoop=1;jettySize=auto;html=1;fontSize=12;startSize=8;endSize=8;" edge="1" parent="WIyWlLk6GJQsqaUBKTNV-1" source="oxO11MjppQJNmG1KDSJN-8" target="oxO11MjppQJNmG1KDSJN-10">
          <mxGeometry relative="1" as="geometry" />
        </mxCell>
        <mxCell id="oxO11MjppQJNmG1KDSJN-8" value="获取配置平台下发的 rollbackVersion" style="whiteSpace=wrap;html=1;shadow=0;strokeWidth=1;spacing=6;spacingTop=-4;" vertex="1" parent="WIyWlLk6GJQsqaUBKTNV-1">
          <mxGeometry x="110" y="420" width="220" height="60" as="geometry" />
        </mxCell>
        <mxCell id="oxO11MjppQJNmG1KDSJN-13" value="" style="edgeStyle=none;curved=1;rounded=0;orthogonalLoop=1;jettySize=auto;html=1;fontSize=12;startSize=8;endSize=8;" edge="1" parent="WIyWlLk6GJQsqaUBKTNV-1" source="oxO11MjppQJNmG1KDSJN-10" target="oxO11MjppQJNmG1KDSJN-12">
          <mxGeometry relative="1" as="geometry" />
        </mxCell>
        <mxCell id="oxO11MjppQJNmG1KDSJN-32" value="" style="edgeStyle=none;curved=1;rounded=0;orthogonalLoop=1;jettySize=auto;html=1;fontSize=12;startSize=8;endSize=8;exitX=0;exitY=0.5;exitDx=0;exitDy=0;entryX=0.5;entryY=0;entryDx=0;entryDy=0;" edge="1" parent="WIyWlLk6GJQsqaUBKTNV-1" source="oxO11MjppQJNmG1KDSJN-10" target="oxO11MjppQJNmG1KDSJN-28">
          <mxGeometry relative="1" as="geometry">
            <mxPoint x="-10" y="665.1724137931033" as="targetPoint" />
          </mxGeometry>
        </mxCell>
        <mxCell id="oxO11MjppQJNmG1KDSJN-10" value="H5_VERSION &amp;lt;= rollbackVersion" style="rhombus;whiteSpace=wrap;html=1;shadow=0;strokeWidth=1;spacing=6;spacingTop=-4;" vertex="1" parent="WIyWlLk6GJQsqaUBKTNV-1">
          <mxGeometry x="77.5" y="530" width="285" height="80" as="geometry" />
        </mxCell>
        <mxCell id="oxO11MjppQJNmG1KDSJN-15" value="" style="edgeStyle=none;curved=1;rounded=0;orthogonalLoop=1;jettySize=auto;html=1;fontSize=12;startSize=8;endSize=8;" edge="1" parent="WIyWlLk6GJQsqaUBKTNV-1" source="oxO11MjppQJNmG1KDSJN-12" target="oxO11MjppQJNmG1KDSJN-14">
          <mxGeometry relative="1" as="geometry" />
        </mxCell>
        <mxCell id="oxO11MjppQJNmG1KDSJN-12" value="在 localStorage 中设置 needRollback = 1" style="whiteSpace=wrap;html=1;shadow=0;strokeWidth=1;spacing=6;spacingTop=-4;" vertex="1" parent="WIyWlLk6GJQsqaUBKTNV-1">
          <mxGeometry x="90" y="670" width="260" height="60" as="geometry" />
        </mxCell>
        <mxCell id="oxO11MjppQJNmG1KDSJN-14" value="结束" style="whiteSpace=wrap;html=1;shadow=0;strokeWidth=1;spacing=6;spacingTop=-4;" vertex="1" parent="WIyWlLk6GJQsqaUBKTNV-1">
          <mxGeometry x="160" y="800" width="120" height="60" as="geometry" />
        </mxCell>
        <mxCell id="oxO11MjppQJNmG1KDSJN-25" value="" style="edgeStyle=none;curved=1;rounded=0;orthogonalLoop=1;jettySize=auto;html=1;fontSize=12;startSize=8;endSize=8;" edge="1" parent="WIyWlLk6GJQsqaUBKTNV-1" source="oxO11MjppQJNmG1KDSJN-20" target="WIyWlLk6GJQsqaUBKTNV-6">
          <mxGeometry relative="1" as="geometry" />
        </mxCell>
        <mxCell id="oxO11MjppQJNmG1KDSJN-20" value="获取 localStorage 中的 needRollback" style="whiteSpace=wrap;html=1;shadow=0;strokeWidth=1;spacing=6;spacingTop=-4;" vertex="1" parent="WIyWlLk6GJQsqaUBKTNV-1">
          <mxGeometry x="125" y="70" width="190" height="60" as="geometry" />
        </mxCell>
        <mxCell id="oxO11MjppQJNmG1KDSJN-24" value="" style="edgeStyle=none;curved=1;rounded=0;orthogonalLoop=1;jettySize=auto;html=1;fontSize=12;startSize=8;endSize=8;" edge="1" parent="WIyWlLk6GJQsqaUBKTNV-1" source="oxO11MjppQJNmG1KDSJN-22" target="oxO11MjppQJNmG1KDSJN-20">
          <mxGeometry relative="1" as="geometry" />
        </mxCell>
        <mxCell id="oxO11MjppQJNmG1KDSJN-22" value="开始" style="whiteSpace=wrap;html=1;shadow=0;strokeWidth=1;spacing=6;spacingTop=-4;" vertex="1" parent="WIyWlLk6GJQsqaUBKTNV-1">
          <mxGeometry x="160" y="-60" width="120" height="60" as="geometry" />
        </mxCell>
        <mxCell id="oxO11MjppQJNmG1KDSJN-36" value="" style="edgeStyle=none;curved=1;rounded=0;orthogonalLoop=1;jettySize=auto;html=1;fontSize=12;startSize=8;endSize=8;entryX=1;entryY=0.5;entryDx=0;entryDy=0;" edge="1" parent="WIyWlLk6GJQsqaUBKTNV-1" source="oxO11MjppQJNmG1KDSJN-26" target="oxO11MjppQJNmG1KDSJN-14">
          <mxGeometry relative="1" as="geometry">
            <mxPoint x="475" y="850" as="targetPoint" />
          </mxGeometry>
        </mxCell>
        <mxCell id="oxO11MjppQJNmG1KDSJN-26" value="跳转 index-online.html" style="whiteSpace=wrap;html=1;shadow=0;strokeWidth=1;spacing=6;spacingTop=-4;" vertex="1" parent="WIyWlLk6GJQsqaUBKTNV-1">
          <mxGeometry x="400" y="670" width="150" height="60" as="geometry" />
        </mxCell>
        <mxCell id="oxO11MjppQJNmG1KDSJN-34" value="" style="edgeStyle=none;curved=1;rounded=0;orthogonalLoop=1;jettySize=auto;html=1;fontSize=12;startSize=8;endSize=8;entryX=0;entryY=0.5;entryDx=0;entryDy=0;" edge="1" parent="WIyWlLk6GJQsqaUBKTNV-1" source="oxO11MjppQJNmG1KDSJN-28" target="oxO11MjppQJNmG1KDSJN-14">
          <mxGeometry relative="1" as="geometry">
            <mxPoint x="-60" y="850" as="targetPoint" />
          </mxGeometry>
        </mxCell>
        <mxCell id="oxO11MjppQJNmG1KDSJN-28" value="删除 localStorage 中的 needRollback" style="whiteSpace=wrap;html=1;shadow=0;strokeWidth=1;spacing=6;spacingTop=-4;" vertex="1" parent="WIyWlLk6GJQsqaUBKTNV-1">
          <mxGeometry x="-170" y="670" width="220" height="60" as="geometry" />
        </mxCell>
      </root>
    </mxGraphModel>
  </diagram>
</mxfile>
